# xmcd
#
# Track frame offsets:
#	150
#	55694
#	98208
#	131008
#	164841
#	217509
#
# Disc length: 3435 seconds
#
# Revision: 1
# Processed by: cddbd v1.5.2PL0 Copyright (c) Steve Scherf et al.
# Submitted via: audiograbber 1.83.01
#
DISCID=4c0d6906
DTITLE=Grateful Dead - 82-05-23 Greek Theatre, Uni of California, Berkeley CA
DYEAR=1900
DGENRE=
TTITLE0=Scarlet Begonias
TTITLE1=Fire On The Mountain
TTITLE2=Samson and Delilah
TTITLE3=Ship Of Fools
TTITLE4=Estimated Prophet
TTITLE5=Eyes Of The World > Drums
EXTD=
EXTT0=
EXTT1=
EXTT2=
EXTT3=
EXTT4=
EXTT5=
PLAYORDER=
